 <svg version="1.0" xmlns="http://www.w3.org/2000/svg"  width="300.000000pt" height="300.000000pt" viewBox="0 0 300.000000 300.000000"  preserveAspectRatio="xMidYMid meet">  <g transform="translate(0.000000,300.000000) scale(0.100000,-0.100000)" fill="#000000" stroke="none"> <path d="M0 1500 l0 -1500 1500 0 1500 0 0 1500 0 1500 -1500 0 -1500 0 0 -1500z m1941 247 c5 -81 -4 -91 -63 -83 -23 3 -50 6 -58 6 -8 0 -80 -2 -160 -4 -79 -3 -152 0 -161 4 -10 6 -28 5 -46 -2 -18 -7 -38 -8 -49 -3 -10 4 -22 7 -26 7 -5 -1 -8 10 -8 25 -1 27 -1 27 -16 -7 -30 -69 -71 -90 -96 -50 -7 11 -20 20 -30 20 -9 0 -20 5 -23 10 -4 7 -11 7 -18 2 -16 -12 -178 -14 -196 -2 -9 5 -22 5 -34 -2 -26 -13 -87 -1 -87 17 0 25 -17 16 -30 -15 -7 -17 -21 -35 -32 -41 -23 -13 -58 -3 -58 17 0 10 -16 14 -65 16 -36 0 -71 1 -77 2 -7 1 -16 12 -19 26 -6 25 -6 25 -14 -5 -15 -58 -58 -83 -85 -50 -15 18 -6 45 15 45 14 0 14 3 -1 25 -9 14 -13 25 -9 25 5 0 0 9 -10 20 -31 34 -8 42 108 38 105 -3 106 -3 101 19 -5 18 -1 23 19 29 31 7 47 -1 47 -25 0 -17 10 -19 97 -20 53 -1 100 -4 104 -7 4 -2 10 -1 13 4 3 5 29 8 59 7 42 -2 54 1 53 13 -1 19 27 37 48 29 9 -4 16 -16 16 -28 0 -15 4 -19 16 -15 10 4 22 -1 29 -11 12 -16 13 -14 12 17 -2 31 1 35 23 35 15 0 29 -8 35 -22 11 -21 16 -22 163 -20 145 2 152 3 167 25 20 28 55 29 62 1 5 -19 54 -38 78 -30 20 7 68 2 77 -7 13 -13 59 9 54 25 -10 26 55 49 65 23 4 -9 9 -46 10 -83z m-1304 67 c-3 -3 -12 -4 -19 -1 -8 3 -5 6 6 6 11 1 17 -2 13 -5z m1883 -329 c6 -8 10 -22 8 -32 -3 -16 -21 -19 -168 -26 -199 -10 -1861 -4 -1878 7 -15 9 -15 39 0 54 9 9 249 12 1019 12 868 0 1008 -2 1019 -15z m-162 -117 c8 -7 12 -7 12 1 0 6 14 11 30 11 25 0 30 -4 30 -25 0 -16 6 -25 16 -25 9 0 18 -9 21 -20 3 -13 14 -20 28 -20 27 0 43 -34 25 -55 -8 -10 -8 -19 2 -34 10 -16 10 -26 2 -38 -8 -13 -8 -23 0 -35 8 -13 8 -23 -2 -38 -9 -15 -9 -24 -1 -39 17 -26 4 -51 -25 -51 -15 0 -25 -7 -29 -20 -3 -11 -13 -20 -22 -20 -12 0 -16 -6 -12 -20 3 -10 -1 -24 -9 -30 -22 -19 -48 -7 -55 25 -5 21 -7 24 -8 9 -3 -51 -70 -56 -72 -6 -1 25 -1 25 -10 -6 -8 -26 -14 -33 -32 -30 -16 2 -23 11 -26 33 -4 29 -4 29 -10 6 -13 -50 -71 -55 -71 -6 0 16 -6 25 -15 25 -9 0 -19 10 -24 23 -5 12 -11 21 -15 20 -29 -12 -34 -1 -34 67 0 58 3 70 16 71 15 1 15 2 0 6 -25 6 -25 63 -1 63 15 0 15 1 -1 13 -25 18 -18 61 12 65 12 2 22 10 22 17 0 8 9 17 21 20 11 4 18 13 16 20 -3 7 -1 17 5 23 13 13 199 13 216 0z"/> <path d="M712 1823 c-10 -4 -10 -8 -1 -19 7 -9 10 -35 7 -69 -4 -52 -3 -55 19 -55 13 0 23 5 23 10 0 6 -3 10 -7 10 -5 0 -8 28 -8 62 0 60 -6 72 -33 61z"/> <path d="M1115 1822 c-6 -4 -9 -36 -7 -73 3 -62 6 -67 28 -72 39 -7 66 19 62 61 -3 34 -6 37 -33 37 -28 0 -30 3 -27 28 4 27 -4 34 -23 19z m55 -92 c0 -22 -5 -30 -18 -30 -15 0 -18 6 -14 30 2 17 10 30 18 30 9 0 14 -11 14 -30z"/> <path d="M1225 1822 c-5 -4 -10 -37 -10 -75 0 -64 1 -67 24 -67 17 0 22 4 17 16 -3 9 -6 42 -6 75 0 57 -4 66 -25 51z"/> <path d="M1610 1820 c-13 -8 -13 -11 -1 -19 10 -6 12 -24 9 -65 -4 -54 -4 -56 19 -56 14 0 21 4 18 10 -4 6 -10 8 -14 6 -4 -3 -3 19 2 48 14 74 3 99 -33 76z"/> <path d="M1897 1822 c-13 -3 -16 -9 -12 -23 5 -14 2 -19 -12 -19 -28 0 -43 -20 -43 -57 0 -21 6 -35 18 -40 17 -9 70 -10 75 -2 2 2 0 36 -3 74 -4 61 -7 70 -23 67z m-7 -92 c0 -20 -5 -30 -15 -30 -10 0 -15 10 -15 30 0 20 5 30 15 30 10 0 15 -10 15 -30z"/> <path d="M490 1775 c0 -3 9 -23 20 -45 11 -22 20 -46 20 -54 0 -9 -7 -12 -20 -9 -13 4 -20 0 -20 -10 0 -16 27 -30 41 -21 8 5 69 129 69 140 0 2 -12 4 -26 4 -20 0 -24 -4 -19 -19 3 -10 2 -26 -1 -36 -7 -17 -8 -16 -15 3 -5 12 -6 29 -3 37 5 11 -1 15 -20 15 -14 0 -26 -2 -26 -5z"/> <path d="M615 1770 c-4 -7 -2 -17 4 -23 8 -8 11 -8 11 1 0 7 7 12 15 12 24 0 17 -26 -7 -27 -46 -4 -48 -48 -2 -48 16 0 31 -3 34 -7 15 -19 27 11 21 52 -6 42 -8 45 -38 48 -17 2 -34 -2 -38 -8z m45 -60 c0 -5 -7 -10 -16 -10 -8 0 -12 5 -9 10 3 6 10 10 16 10 5 0 9 -4 9 -10z"/> <path d="M763 1743 c-1 -21 3 -45 8 -53 6 -10 7 -3 3 20 l-5 35 20 -35 c22 -40 20 -50 -9 -43 -13 4 -20 0 -20 -10 0 -16 27 -30 41 -21 8 5 69 129 69 140 0 2 -12 4 -26 4 -20 0 -24 -4 -19 -19 3 -10 2 -26 -1 -36 -7 -17 -8 -16 -15 3 -5 12 -6 29 -3 37 5 11 -1 15 -18 15 -21 0 -24 -5 -25 -37z"/> <path d="M884 1755 c-32 -49 19 -101 65 -68 23 16 28 62 9 81 -20 20 -56 14 -74 -13z m56 -25 c0 -32 -23 -42 -34 -15 -8 21 3 45 20 45 9 0 14 -11 14 -30z"/> <path d="M987 1738 c3 -24 8 -46 12 -50 7 -8 78 -14 84 -8 2 3 2 26 -1 53 -3 37 -8 47 -22 47 -15 0 -17 -6 -13 -40 5 -33 3 -40 -11 -40 -12 0 -16 10 -16 40 0 33 -3 40 -19 40 -17 0 -18 -6 -14 -42z"/> <path d="M1260 1776 c0 -2 12 -24 26 -50 16 -29 23 -53 19 -64 -5 -12 -9 -13 -12 -4 -3 6 -9 12 -14 12 -12 0 -12 -27 0 -34 20 -12 39 8 66 67 16 34 31 65 33 70 2 4 -8 7 -23 7 -20 0 -26 -4 -21 -15 3 -8 1 -25 -3 -37 l-9 -23 -10 25 c-5 14 -7 31 -5 38 3 8 -4 12 -21 12 -14 0 -26 -2 -26 -4z"/> <path d="M1392 1768 c-13 -13 -16 -57 -4 -74 14 -21 53 -23 73 -3 21 21 24 41 9 70 -12 22 -59 26 -78 7z m53 -39 c0 -15 -7 -25 -17 -27 -13 -3 -18 3 -18 21 0 13 3 27 7 31 13 12 28 -1 28 -25z"/> <path d="M1480 1771 c0 -6 4 -12 9 -16 5 -3 8 -15 6 -28 -3 -12 -1 -28 4 -35 8 -14 75 -22 90 -12 4 3 5 26 3 53 -3 37 -8 47 -22 47 -15 0 -17 -6 -13 -41 5 -36 4 -41 -13 -37 -15 3 -19 12 -19 41 0 32 -3 37 -22 37 -13 0 -23 -4 -23 -9z"/> <path d="M1663 1766 c3 -7 1 -18 -5 -24 -15 -15 17 -62 42 -62 26 0 25 8 -2 30 -22 17 -22 19 -5 37 23 26 22 33 -9 33 -18 0 -25 -4 -21 -14z"/> <path d="M1732 1768 c-7 -7 -12 -24 -12 -38 0 -34 17 -50 52 -50 37 0 57 38 40 75 -13 27 -58 35 -80 13z m53 -39 c0 -15 -7 -25 -17 -27 -13 -3 -18 3 -18 21 0 13 3 27 7 31 13 12 28 -1 28 -25z"/> <path d="M1032 1735 c0 -16 2 -22 5 -12 2 9 2 23 0 30 -3 6 -5 -1 -5 -18z"/> <path d="M1701 1724 c0 -11 3 -14 6 -6 3 7 2 16 -1 19 -3 4 -6 -2 -5 -13z"/> <path d="M490 1460 c0 -20 7 -20 1010 -20 1003 0 1010 0 1010 20 0 20 -7 20 -1010 20 -1003 0 -1010 0 -1010 -20z"/> <path d="M2153 1350 c-1 -14 4 -20 20 -20 16 0 23 6 24 20 1 14 -4 20 -20 20 -16 0 -23 -6 -24 -20z"/> <path d="M2230 1350 c0 -13 7 -20 20 -20 13 0 20 7 20 20 0 13 -7 20 -20 20 -13 0 -20 -7 -20 -20z"/> <path d="M2303 1350 c1 -13 8 -20 22 -20 14 0 21 6 21 20 0 14 -7 20 -23 20 -16 0 -21 -6 -20 -20z"/> <path d="M2380 1350 c0 -13 7 -20 20 -20 13 0 20 7 20 20 0 13 -7 20 -20 20 -13 0 -20 -7 -20 -20z"/> <path d="M2120 1140 l0 -170 170 0 170 0 0 170 0 170 -170 0 -170 0 0 -170z m88 106 c-2 -13 -10 -21 -23 -21 -23 0 -33 34 -14 45 20 13 40 -1 37 -24z m59 -172 c-3 -3 -12 -4 -19 -1 -8 3 -5 6 6 6 11 1 17 -2 13 -5z m143 -20 c11 -12 10 -18 -3 -32 -16 -15 -18 -15 -34 0 -13 14 -14 20 -3 32 7 9 16 16 20 16 4 0 13 -7 20 -16z m-225 -14 c3 -5 1 -10 -4 -10 -6 0 -11 5 -11 10 0 6 2 10 4 10 3 0 8 -4 11 -10z m85 0 c0 -5 -5 -10 -11 -10 -5 0 -7 5 -4 10 3 6 8 10 11 10 2 0 4 -4 4 -10z m80 0 c0 -5 -5 -10 -11 -10 -5 0 -7 5 -4 10 3 6 8 10 11 10 2 0 4 -4 4 -10z m57 -46 c-3 -3 -12 -4 -19 -1 -8 3 -5 6 6 6 11 1 17 -2 13 -5z"/> <path d="M2181 1244 c0 -11 3 -14 6 -6 3 7 2 16 -1 19 -3 4 -6 -2 -5 -13z"/> <path d="M2060 1261 c0 -10 9 -21 20 -24 16 -4 20 0 20 19 0 17 -6 24 -20 24 -13 0 -20 -7 -20 -19z"/> <path d="M2477 1273 c-14 -13 -6 -33 13 -33 13 0 20 7 20 20 0 19 -20 27 -33 13z"/> <path d="M2478 1213 c7 -3 16 -2 19 1 4 3 -2 6 -13 5 -11 0 -14 -3 -6 -6z"/> <path d="M2060 1180 c0 -13 7 -20 20 -20 13 0 20 7 20 20 0 13 -7 20 -20 20 -13 0 -20 -7 -20 -20z"/> <path d="M2470 1180 c0 -13 7 -20 19 -20 10 0 21 9 24 20 4 16 0 20 -19 20 -17 0 -24 -6 -24 -20z"/> <path d="M2060 1110 c0 -13 7 -20 20 -20 13 0 20 7 20 20 0 13 -7 20 -20 20 -13 0 -20 -7 -20 -20z"/> <path d="M2470 1110 c0 -13 7 -20 20 -20 13 0 20 7 20 20 0 13 -7 20 -20 20 -13 0 -20 -7 -20 -20z"/> <path d="M2060 1030 c0 -13 7 -20 20 -20 13 0 20 7 20 20 0 13 -7 20 -20 20 -13 0 -20 -7 -20 -20z"/> <path d="M2470 1030 c0 -13 7 -20 19 -20 10 0 21 9 24 20 4 16 0 20 -19 20 -17 0 -24 -6 -24 -20z"/> <path d="M2153 940 c1 -13 8 -20 22 -20 14 0 21 7 22 20 1 15 -4 20 -22 20 -18 0 -23 -5 -22 -20z"/> <path d="M2230 940 c0 -13 7 -20 20 -20 13 0 20 7 20 20 0 13 -7 20 -20 20 -13 0 -20 -7 -20 -20z"/> <path d="M2303 940 c1 -13 8 -20 22 -20 14 0 21 7 22 20 1 15 -4 20 -22 20 -18 0 -23 -5 -22 -20z"/> <path d="M2380 940 c0 -13 7 -20 20 -20 13 0 20 7 20 20 0 13 -7 20 -20 20 -13 0 -20 -7 -20 -20z"/> </g> </svg> 